<?xml version="1.0" encoding="UTF-8"?>
<svg version="1.1" xmlns="http://www.w3.org/2000/svg" width="256" height="256">
<path d="M0 0 C1.92724915 -0.02848274 1.92724915 -0.02848274 3.89343262 -0.05754089 C5.28768551 -0.05190943 6.68193317 -0.04481939 8.07617188 -0.03637695 C9.51436961 -0.04228934 10.95256243 -0.04953752 12.39074707 -0.05805969 C15.40024521 -0.06992372 18.40900301 -0.0632601 21.41845703 -0.04394531 C25.26927333 -0.02105104 29.11788415 -0.04784734 32.96848297 -0.08900738 C35.93693957 -0.1146203 38.90487072 -0.11199665 41.87339783 -0.10111427 C43.29273991 -0.09963057 44.71212285 -0.1072833 46.13136292 -0.12436485 C57.12766777 -0.23524402 57.12766777 -0.23524402 60.46014404 1.8764801 C61.78808594 3.40258789 61.78808594 3.40258789 63.54492188 6.6628418 C64.27243652 7.90094604 64.27243652 7.90094604 65.01464844 9.1640625 C65.40104492 9.96416748 65.78744141 10.76427246 66.18554688 11.58862305 C66.61609375 12.46711914 67.04664063 13.34561523 67.49023438 14.25073242 C68.13605469 15.59941406 68.13605469 15.59941406 68.79492188 16.9753418 C69.67356896 18.78469454 70.55369634 20.59332945 71.43554688 22.40112305 C71.81743164 23.19558838 72.19931641 23.99005371 72.59277344 24.80859375 C73.40693712 26.62686457 73.40693712 26.62686457 74.54492188 27.6628418 C77.58734508 27.77225181 80.6078975 27.8170812 83.65112305 27.82055664 C84.6072348 27.82563736 85.56334656 27.83071808 86.5484314 27.83595276 C88.6328304 27.84668316 90.71724112 27.85529278 92.80165672 27.86207199 C96.10093144 27.87382576 99.40007315 27.89327076 102.69929504 27.91519165 C112.08276947 27.97691675 121.4662322 28.03082507 130.84985352 28.06420898 C136.58288694 28.08515815 142.31568139 28.1204689 148.04857826 28.16496658 C150.23459368 28.17913061 152.42065143 28.18784992 154.60671043 28.19102097 C157.66864358 28.19593116 160.72994359 28.21909423 163.79174805 28.24633789 C164.69432846 28.24333176 165.59690887 28.24032562 166.52684021 28.23722839 C171.59416298 28.30416275 175.16983062 28.81088813 179.54492188 31.6628418 C180.7344909 34.04197986 180.68091213 35.51066861 180.69882202 38.16635132 C180.70742249 39.11411942 180.71602295 40.06188751 180.72488403 41.03837585 C180.73127396 42.60311394 180.73127396 42.60311394 180.73779297 44.19946289 C180.74597046 45.29548325 180.75414795 46.3915036 180.76257324 47.52073669 C180.78745155 51.15924527 180.80394773 54.79771483 180.81835938 58.4362793 C180.82368305 59.67613209 180.82900673 60.91598488 180.83449173 62.19340897 C180.85572445 67.40225317 180.8748551 72.61109147 180.88611412 77.81996727 C180.90235939 85.28660203 180.93555323 92.75271691 180.99251497 100.21915567 C181.03585923 106.1009695 181.05185647 111.982667 181.05824661 117.8646431 C181.06498048 120.36777069 181.0802574 122.87089008 181.10413742 125.37391281 C181.13561339 128.87215866 181.13585175 132.36908248 181.12841797 135.86743164 C181.1448233 136.9065419 181.16122864 137.94565216 181.1781311 139.01625061 C181.11703135 146.01908919 181.11703135 146.01908919 178.19309998 149.30917358 C175.01389815 150.93428499 172.93079794 151.12364724 169.36914062 151.0534668 C168.21220703 151.04057617 167.05527344 151.02768555 165.86328125 151.0144043 C164.06600586 150.96413086 164.06600586 150.96413086 162.23242188 150.9128418 C161.01490234 150.89479492 159.79738281 150.87674805 158.54296875 150.8581543 C155.54281766 150.8110931 152.54427299 150.74535489 149.54492188 150.6628418 C149.56848755 151.759552 149.56848755 151.759552 149.5925293 152.87841797 C149.65502539 156.2023134 149.6939594 159.526085 149.73242188 162.8503418 C149.75755859 164.00083008 149.78269531 165.15131836 149.80859375 166.33666992 C149.8230957 168.00439453 149.8230957 168.00439453 149.83789062 169.70581055 C149.8614563 171.23757935 149.8614563 171.23757935 149.88549805 172.80029297 C149.37731335 177.07159444 147.54178269 179.66598098 144.54492188 182.6628418 C141.33227295 183.78461384 138.28518499 183.77848149 134.90429688 183.76049805 C133.834375 183.75727539 132.76445312 183.75405273 131.66210938 183.75073242 C130.5509375 183.74235352 129.43976563 183.73397461 128.29492188 183.7253418 C126.60496094 183.71857422 126.60496094 183.71857422 124.88085938 183.71166992 C122.1021597 183.69989577 119.32356778 183.68345019 116.54492188 183.6628418 C116.56586914 184.4242749 116.58681641 185.18570801 116.60839844 185.97021484 C116.69169982 189.43012211 116.74362772 192.88981818 116.79492188 196.3503418 C116.8284375 197.54852539 116.86195313 198.74670898 116.89648438 199.98120117 C116.909375 201.13813477 116.92226562 202.29506836 116.93554688 203.48706055 C116.95649414 204.55013428 116.97744141 205.61320801 116.99902344 206.70849609 C116.43411393 210.38374874 115.09985884 212.01555413 112.54492188 214.6628418 C109.55578442 216.15741053 106.84000356 215.79576172 103.50456238 215.80328369 C102.77134193 215.80625481 102.03812149 215.80922594 101.28268224 215.81228709 C98.81303653 215.82099457 96.34343917 215.82248407 93.8737793 215.82397461 C92.10821936 215.82860135 90.34266042 215.83362581 88.57710266 215.83901978 C83.7712539 215.85216001 78.96541912 215.85859194 74.1595552 215.86303043 C71.15873446 215.86595865 68.15791757 215.87006299 65.15709877 215.87453461 C55.77317071 215.88821405 46.3892514 215.89787842 37.00531405 215.9017365 C26.16386198 215.90621796 15.32253594 215.92376808 4.4811222 215.95273709 C-3.89260264 215.97433741 -12.26629198 215.9844399 -20.64004439 215.98577762 C-25.64417623 215.98682687 -30.64818968 215.99276005 -35.65229225 216.01059723 C-40.35954682 216.02704932 -45.06659362 216.02924736 -49.77386665 216.02045822 C-51.50204778 216.0196863 -53.23023995 216.02405096 -54.9583931 216.03391647 C-57.3171 216.04659235 -59.67506624 216.04078333 -62.0337677 216.03033447 C-62.71820995 216.03839088 -63.40265219 216.04644728 -64.10783511 216.05474782 C-68.37800265 216.01048437 -71.05158291 215.26092162 -74.45507812 212.6628418 C-75.77359328 210.0258115 -75.59002416 208.05067424 -75.60224915 205.09634399 C-75.60940445 203.91297958 -75.61655975 202.72961517 -75.62393188 201.51039124 C-75.62662079 200.20541183 -75.62930969 198.90043243 -75.63208008 197.5559082 C-75.63834389 196.17295663 -75.64499062 194.79000675 -75.6519928 193.40705872 C-75.66940823 189.64463773 -75.67995569 185.88222946 -75.68819833 182.11977816 C-75.69334658 179.77024266 -75.69942234 177.42071113 -75.70570946 175.07117844 C-75.72476174 167.72315343 -75.73899366 160.37513849 -75.74732143 153.02709353 C-75.75709968 144.53893999 -75.78343417 136.05104682 -75.82382232 127.56298506 C-75.85395466 121.00582168 -75.86878748 114.44873307 -75.87210244 107.89150178 C-75.87445594 103.97330264 -75.88345501 100.05538164 -75.90856361 96.13725662 C-75.93179978 92.45179818 -75.93609592 88.76680192 -75.92580223 85.08128929 C-75.92506878 83.08293588 -75.94419067 81.08460616 -75.96386719 79.08634949 C-75.95692337 77.89734543 -75.94997955 76.70834137 -75.94282532 75.48330688 C-75.94521367 74.44980921 -75.94760202 73.41631153 -75.95006275 72.35149574 C-75.32571875 68.96018845 -74.09624026 67.80491082 -71.45507812 65.6628418 C-68.79329592 64.33195069 -66.76768416 64.55015187 -63.79101562 64.56518555 C-62.66953125 64.5684082 -61.54804687 64.57163086 -60.39257812 64.57495117 C-59.21695313 64.58333008 -58.04132812 64.59170898 -56.83007812 64.6003418 C-55.64671875 64.60485352 -54.46335937 64.60936523 -53.24414062 64.61401367 C-50.31440306 64.62582713 -47.3847654 64.64229922 -44.45507812 64.6628418 C-44.47078857 63.96723145 -44.48649902 63.27162109 -44.50268555 62.55493164 C-44.56530676 59.38265209 -44.60415489 56.21050294 -44.64257812 53.0378418 C-44.66771484 51.94342773 -44.69285156 50.84901367 -44.71875 49.72143555 C-44.8128119 39.37462672 -44.8128119 39.37462672 -41.45507812 34.6628418 C-37.91494588 32.30275363 -36.44385858 32.42820536 -32.25585938 32.4675293 C-31.04736328 32.47397461 -29.83886719 32.48041992 -28.59375 32.48706055 C-26.69979492 32.51219727 -26.69979492 32.51219727 -24.76757812 32.5378418 C-23.49333984 32.54686523 -22.21910156 32.55588867 -20.90625 32.56518555 C-17.75567185 32.58878538 -14.60546829 32.62170986 -11.45507812 32.6628418 C-11.48126221 31.87111572 -11.50744629 31.07938965 -11.53442383 30.26367188 C-11.63851935 26.66776462 -11.70344713 23.07217449 -11.76757812 19.4753418 C-11.80947266 18.22946289 -11.85136719 16.98358398 -11.89453125 15.69995117 C-11.91064453 14.49790039 -11.92675781 13.29584961 -11.94335938 12.05737305 C-11.96954346 10.95240479 -11.99572754 9.84743652 -12.02270508 8.70898438 C-10.78680148 2.07656754 -6.27957935 0.03891815 0 0 Z " fill="#FF6E43" transform="translate(75.455078125,20.337158203125)"/>
<path d="M0 0 C21.8728125 -0.0928125 21.8728125 -0.0928125 44.1875 -0.1875 C48.78840576 -0.21481201 53.38931152 -0.24212402 58.12963867 -0.27026367 C63.75646973 -0.28381348 63.75646973 -0.28381348 66.39228821 -0.28633118 C68.22959066 -0.29093197 70.06688416 -0.30147094 71.90412903 -0.31672668 C74.69039602 -0.33870224 77.47611044 -0.3417175 80.26245117 -0.34057617 C81.07824489 -0.3513705 81.8940386 -0.36216482 82.73455334 -0.37328625 C87.79936253 -0.34553384 91.34643455 0.34643455 95 4 C95.12513863 6.47363919 95.18605612 8.92072604 95.20532227 11.39599609 C95.21522186 12.17207214 95.22512146 12.94814819 95.23532104 13.7477417 C95.26713376 16.33960863 95.2918229 18.93149266 95.31640625 21.5234375 C95.33701093 23.34063146 95.35800824 25.157821 95.37937927 26.9750061 C95.42347951 30.81029714 95.46434194 34.64560418 95.50268555 38.48095703 C95.56049019 44.25951025 95.62660038 50.03795077 95.69335938 55.81640625 C95.7880388 64.0619597 95.86296261 72.3075279 95.92713356 80.55337143 C95.96620372 85.22200302 96.02887174 89.88900597 96.12667561 94.55677605 C96.18972787 97.67566673 96.2308508 100.79488711 96.27734375 103.9140625 C96.3092128 104.99231293 96.34108185 106.07056335 96.37391663 107.18148804 C96.45065529 114.25450882 96.45065529 114.25450882 94.10766602 118.13037109 C90.15525948 121.63639788 86.55989439 121.13525576 81.51123047 121.11352539 C80.1727238 121.11370619 80.1727238 121.11370619 78.80717659 121.11389065 C75.91048845 121.11314256 73.01386417 121.10551901 70.1171875 121.09765625 C68.33211295 121.09618651 66.54703796 121.095166 64.76196289 121.09460449 C58.1329687 121.08935532 51.50398373 121.07539419 44.875 121.0625 C30.06625 121.041875 15.2575 121.02125 0 121 C0 81.07 0 41.14 0 0 Z " fill="#FF451B" transform="translate(96,115)"/>
<path d="M0 0 C1.28483276 -0.01898849 2.56966553 -0.03797699 3.89343262 -0.05754089 C5.28768551 -0.05190943 6.68193317 -0.04481939 8.07617188 -0.03637695 C9.51436961 -0.04228934 10.95256243 -0.04953752 12.39074707 -0.05805969 C15.40024521 -0.06992372 18.40900301 -0.0632601 21.41845703 -0.04394531 C25.26927333 -0.02105104 29.11788415 -0.04784734 32.96848297 -0.08900738 C35.93693957 -0.1146203 38.90487072 -0.11199665 41.87339783 -0.10111427 C43.29273991 -0.09963057 44.71212285 -0.1072833 46.13136292 -0.12436485 C57.12766777 -0.23524402 57.12766777 -0.23524402 60.46014404 1.8764801 C61.78808594 3.40258789 61.78808594 3.40258789 63.54492188 6.6628418 C64.02993164 7.48824463 64.51494141 8.31364746 65.01464844 9.1640625 C65.59424316 10.36421997 65.59424316 10.36421997 66.18554688 11.58862305 C66.61609375 12.46711914 67.04664063 13.34561523 67.49023438 14.25073242 C67.92078125 15.14985352 68.35132813 16.04897461 68.79492188 16.9753418 C69.67356896 18.78469454 70.55369634 20.59332945 71.43554688 22.40112305 C72.00837402 23.59282104 72.00837402 23.59282104 72.59277344 24.80859375 C73.40693712 26.62686457 73.40693712 26.62686457 74.54492188 27.6628418 C77.58734508 27.77225181 80.6078975 27.8170812 83.65112305 27.82055664 C84.6072348 27.82563736 85.56334656 27.83071808 86.5484314 27.83595276 C88.6328304 27.84668316 90.71724112 27.85529278 92.80165672 27.86207199 C96.10093144 27.87382576 99.40007315 27.89327076 102.69929504 27.91519165 C112.08276947 27.97691675 121.4662322 28.03082507 130.84985352 28.06420898 C136.58288694 28.08515815 142.31568139 28.1204689 148.04857826 28.16496658 C150.23459368 28.17913061 152.42065143 28.18784992 154.60671043 28.19102097 C157.66864358 28.19593116 160.72994359 28.21909423 163.79174805 28.24633789 C164.69432846 28.24333176 165.59690887 28.24032562 166.52684021 28.23722839 C171.59416298 28.30416275 175.16983062 28.81088813 179.54492188 31.6628418 C180.7344909 34.04197986 180.68091213 35.51066861 180.69882202 38.16635132 C180.70742249 39.11411942 180.71602295 40.06188751 180.72488403 41.03837585 C180.73127396 42.60311394 180.73127396 42.60311394 180.73779297 44.19946289 C180.7500592 45.84349342 180.7500592 45.84349342 180.76257324 47.52073669 C180.78745155 51.15924527 180.80394773 54.79771483 180.81835938 58.4362793 C180.82368305 59.67613209 180.82900673 60.91598488 180.83449173 62.19340897 C180.85572445 67.40225317 180.8748551 72.61109147 180.88611412 77.81996727 C180.90235939 85.28660203 180.93555323 92.75271691 180.99251497 100.21915567 C181.03585923 106.1009695 181.05185647 111.982667 181.05824661 117.8646431 C181.06498048 120.36777069 181.0802574 122.87089008 181.10413742 125.37391281 C181.13561339 128.87215866 181.13585175 132.36908248 181.12841797 135.86743164 C181.1448233 136.9065419 181.16122864 137.94565216 181.1781311 139.01625061 C181.11761207 145.9525306 181.11761207 145.9525306 178.40811157 149.31314087 C175.06029852 150.89129211 172.84424411 151.12349246 169.15039062 151.0534668 C167.94833984 151.04057617 166.74628906 151.02768555 165.5078125 151.0144043 C163.63899414 150.96413086 163.63899414 150.96413086 161.73242188 150.9128418 C160.46720703 150.89479492 159.20199219 150.87674805 157.8984375 150.8581543 C154.77982853 150.81108095 151.66276214 150.74533274 148.54492188 150.6628418 C148.53945343 149.11641998 148.53945343 149.11641998 148.53387451 147.53875732 C148.49694721 137.82715898 148.43919949 128.1158784 148.36101913 118.40452194 C148.32149517 113.4116763 148.28933087 108.41900833 148.27392578 103.42602539 C148.25879154 98.60826757 148.22440376 93.79099804 148.17661285 88.97345734 C148.16176562 87.13468925 148.15387895 85.29585146 148.15303802 83.45702362 C148.15067662 80.88284634 148.12366514 78.31002758 148.09082031 75.73608398 C148.09585068 74.97435379 148.10088104 74.2126236 148.10606384 73.42781067 C148.04268241 70.22123315 147.72808997 67.97837998 146.10795593 65.18742371 C142.16315783 62.84092043 138.49944275 63.13264065 133.99047852 63.19628906 C133.02256882 63.19398285 132.05465912 63.19167664 131.05741882 63.18930054 C128.95668394 63.1866709 126.85592261 63.19311823 124.75523567 63.20755196 C121.43056464 63.2294092 118.10680494 63.22573091 114.78208923 63.21507263 C106.52508135 63.1933851 98.26827496 63.21078627 90.0112915 63.23657227 C83.03458147 63.25795682 76.05845475 63.25994367 69.08175468 63.23365593 C65.80592464 63.22929905 62.53110232 63.25396336 59.25538635 63.27919006 C57.24650623 63.27391952 55.23762921 63.26719721 53.22875977 63.25878906 C52.31794647 63.27369888 51.40713318 63.2886087 50.46871948 63.30397034 C45.98727456 63.25340185 44.14803477 63.14071602 40.52856445 60.27284241 C38.69326511 57.85802613 37.28228815 55.65104304 36.00976562 52.9050293 C35.59275391 52.03233398 35.17574219 51.15963867 34.74609375 50.26049805 C34.32908203 49.36202148 33.91207031 48.46354492 33.48242188 47.5378418 C32.64700184 45.73906604 31.80227223 43.944578 30.94726562 42.1550293 C30.58109131 41.36467285 30.21491699 40.57431641 29.83764648 39.76000977 C28.26193412 37.20375496 27.2163756 36.07532507 24.54492188 34.6628418 C21.72121476 34.33803111 19.10545499 34.17467375 16.27929688 34.15112305 C15.08920013 34.12419624 15.08920013 34.12419624 13.87506104 34.09672546 C11.34840156 34.04267253 8.82193043 34.00874368 6.29492188 33.9753418 C4.57874986 33.9421642 2.86260269 33.90767412 1.14648438 33.87182617 C-3.05390045 33.78694924 -7.2542299 33.72011458 -11.45507812 33.6628418 C-11.60039847 29.10067715 -11.6891629 24.53910818 -11.76757812 19.9753418 C-11.80947266 18.68176758 -11.85136719 17.38819336 -11.89453125 16.05541992 C-11.91064453 14.80825195 -11.92675781 13.56108398 -11.94335938 12.27612305 C-11.96954346 11.12926025 -11.99572754 9.98239746 -12.02270508 8.80078125 C-10.81297359 2.11317744 -6.34371403 0.03931563 0 0 Z " fill="#008876" transform="translate(75.455078125,20.337158203125)"/>
<path d="M0 0 C1.02464355 0.0009668 2.04928711 0.00193359 3.10498047 0.00292969 C4.22662598 0.01614258 5.34827148 0.02935547 6.50390625 0.04296875 C7.66937988 0.05231445 8.83485352 0.06166016 10.03564453 0.07128906 C13.3168843 0.10458381 16.59770589 0.15036415 19.87872314 0.20050049 C22.18068147 0.23203416 24.48257765 0.25343551 26.78466797 0.27294922 C30.86528468 0.30895744 34.94506688 0.36763268 39.025177 0.44100952 C40.63061576 0.4672278 42.23617023 0.48714778 43.84176636 0.50064087 C46.11273888 0.52195086 48.38190802 0.56849464 50.65234375 0.62109375 C51.96251465 0.64204102 53.27268555 0.66298828 54.62255859 0.68457031 C58.66162071 1.32481864 60.240953 2.3132881 63.06640625 5.23046875 C64.59619141 7.67236328 64.59619141 7.67236328 65.85546875 10.36328125 C66.55542969 11.81927734 66.55542969 11.81927734 67.26953125 13.3046875 C67.73875 14.31144531 68.20796875 15.31820312 68.69140625 16.35546875 C69.63454876 18.36155836 70.58475722 20.36434554 71.54296875 22.36328125 C71.95627441 23.24902832 72.36958008 24.13477539 72.79541016 25.04736328 C74.01844189 27.51625039 74.01844189 27.51625039 77.06640625 29.23046875 C79.02590951 29.5257802 79.02590951 29.5257802 81.18991089 29.47529602 C82.02822449 29.4792337 82.86653809 29.48317139 83.73025513 29.48722839 C84.64668793 29.48153336 85.56312073 29.47583832 86.50732422 29.4699707 C87.47508789 29.47198486 88.44285156 29.47399902 89.43994141 29.47607422 C91.54341216 29.47962235 93.64689357 29.4788494 95.7503624 29.47429848 C99.07899054 29.46871579 102.40726885 29.47784686 105.73587036 29.49150085 C115.20039399 29.52867427 124.6648 29.54715988 134.12939453 29.53588867 C139.91667171 29.53004089 145.70345784 29.54828372 151.49063492 29.58177757 C153.69702914 29.58973906 155.90347678 29.58844453 158.10985947 29.57775307 C161.19601649 29.56344305 164.28062777 29.57968023 167.36669922 29.6027832 C168.27908356 29.59101547 169.1914679 29.57924774 170.13150024 29.56712341 C174.39246224 29.62971433 176.51681082 29.86245659 180.13142395 32.28282166 C182.52249859 35.92525508 182.77650297 38.79744107 182.72583008 43.02050781 C182.73631378 43.79062698 182.74679749 44.56074615 182.75759888 45.35420227 C182.78638911 47.90190832 182.78003995 50.44825344 182.7734375 52.99609375 C182.78658127 54.78995421 182.8018936 56.58379996 182.81925964 58.37762451 C182.85919061 63.11590253 182.86929698 67.85379779 182.87329102 72.59222412 C182.88248148 77.31942052 182.91994768 82.04637537 182.95507812 86.7734375 C183.0118971 94.86171863 183.03620252 102.94962999 183.04394722 111.03809357 C183.0520745 116.12745027 183.10042625 121.21400664 183.18115234 126.30273438 C183.19538742 127.47181335 183.2096225 128.64089233 183.22428894 129.84539795 C183.25076419 131.92342618 183.28824402 134.00136113 183.33979797 136.07891846 C183.38741346 140.98706147 183.28921724 144.25087051 180.06640625 148.23046875 C176.66933053 151.62754447 173.10199024 151.35792957 168.4609375 151.36328125 C166.86282227 151.36521484 166.86282227 151.36521484 165.23242188 151.3671875 C164.12576172 151.36332031 163.01910156 151.35945312 161.87890625 151.35546875 C160.76064453 151.35933594 159.64238281 151.36320313 158.49023438 151.3671875 C156.89791992 151.36525391 156.89791992 151.36525391 155.2734375 151.36328125 C154.29866455 151.36215332 153.3238916 151.36102539 152.31958008 151.35986328 C150.06640625 151.23046875 150.06640625 151.23046875 149.06640625 150.23046875 C148.96790312 147.62973989 148.9334016 145.0548145 148.94042969 142.45361328 C148.93762749 141.23167267 148.93762749 141.23167267 148.93476868 139.98504639 C148.93075506 138.21002647 148.92868896 136.43500137 148.92830658 134.65997696 C148.92490469 130.89252705 148.90356029 127.12525186 148.88307571 123.35786247 C148.84497195 116.33539453 148.81379386 109.31311031 148.81591797 102.29052734 C148.8167033 97.41323503 148.79341628 92.53657729 148.75403595 87.65945053 C148.74354507 85.79751307 148.74207452 83.93550263 148.74968719 82.07355118 C148.75926833 79.4703691 148.73820573 76.86912048 148.70996094 74.26611328 C148.72525597 73.10645554 148.72525597 73.10645554 148.74085999 71.92337036 C148.67500586 68.54811285 148.5319201 66.70543906 146.12469482 64.24931335 C141.85355816 62.82641802 137.9647256 62.83930509 133.49023438 62.89331055 C132.53193222 62.89275665 131.57363007 62.89220276 130.58628845 62.89163208 C128.50957709 62.89189163 126.43285835 62.89875708 124.35618591 62.91147423 C121.06932773 62.92984584 117.78310694 62.92718581 114.49621582 62.91841125 C105.15281329 62.89659144 95.80965562 62.90758798 86.46630859 62.94555664 C80.74802837 62.96732333 75.03037598 62.96014701 69.31211853 62.93509865 C67.1336104 62.93150134 64.95505342 62.93918799 62.77662659 62.95834923 C59.73123642 62.98462068 56.6879786 62.97427693 53.64257812 62.95581055 C52.29274086 62.98121162 52.29274086 62.98121162 50.91563416 63.00712585 C44.94248442 62.91869843 44.94248442 62.91869843 42.41561222 60.93363762 C39.94411786 58.03592856 38.12473716 54.78336986 36.53125 51.33984375 C36.11423828 50.46585938 35.69722656 49.591875 35.26757812 48.69140625 C34.41844863 46.8697807 33.57213589 45.04683974 32.72851562 43.22265625 C32.31279297 42.35382813 31.89707031 41.485 31.46875 40.58984375 C31.10257568 39.80061523 30.73640137 39.01138672 30.35913086 38.19824219 C28.74477143 35.74087921 27.87240246 35.12723343 25.06640625 34.23046875 C22.36536073 34.00632983 19.75758952 33.88222121 17.0546875 33.8515625 C16.28585739 33.83456802 15.51702728 33.81757355 14.72489929 33.80006409 C12.27631768 33.7470521 9.82775257 33.70667144 7.37890625 33.66796875 C4.91943163 33.62407098 2.4600893 33.57744093 0.0007782 33.52516174 C-1.52824446 33.4931469 -3.05738478 33.46627486 -4.58659363 33.44493103 C-9.82181902 33.34224348 -9.82181902 33.34224348 -10.93359375 32.23046875 C-11.21563751 28.34211097 -11.16547703 24.44032729 -11.18359375 20.54296875 C-11.20421875 19.45306641 -11.22484375 18.36316406 -11.24609375 17.24023438 C-11.29611146 6.96784767 -11.29611146 6.96784767 -7.93359375 2.23046875 C-4.66582985 0.05195948 -3.77718634 -0.01751082 0 0 Z " fill="#FDA333" transform="translate(41.93359375,52.76953125)"/>
<path d="M0 0 C1.28483276 -0.01898849 2.56966553 -0.03797699 3.89343262 -0.05754089 C5.28768551 -0.05190943 6.68193317 -0.04481939 8.07617188 -0.03637695 C9.51436961 -0.04228934 10.95256243 -0.04953752 12.39074707 -0.05805969 C15.40024521 -0.06992372 18.40900301 -0.0632601 21.41845703 -0.04394531 C25.26927333 -0.02105104 29.11788415 -0.04784734 32.96848297 -0.08900738 C35.93693957 -0.1146203 38.90487072 -0.11199665 41.87339783 -0.10111427 C43.29273991 -0.09963057 44.71212285 -0.1072833 46.13136292 -0.12436485 C57.12766777 -0.23524402 57.12766777 -0.23524402 60.46014404 1.8764801 C61.78808594 3.40258789 61.78808594 3.40258789 63.54492188 6.6628418 C64.02993164 7.48824463 64.51494141 8.31364746 65.01464844 9.1640625 C65.59424316 10.36421997 65.59424316 10.36421997 66.18554688 11.58862305 C66.61609375 12.46711914 67.04664063 13.34561523 67.49023438 14.25073242 C67.92078125 15.14985352 68.35132813 16.04897461 68.79492188 16.9753418 C69.67356896 18.78469454 70.55369634 20.59332945 71.43554688 22.40112305 C72.00837402 23.59282104 72.00837402 23.59282104 72.59277344 24.80859375 C73.40693712 26.62686457 73.40693712 26.62686457 74.54492188 27.6628418 C77.61874584 27.78822873 80.67117197 27.84897041 83.74633789 27.86816406 C84.7120874 27.87806366 85.67783691 27.88796326 86.67285156 27.89816284 C89.88148504 27.9298808 93.09013335 27.9545758 96.29882812 27.97924805 C98.51700741 27.99980869 100.73518269 28.02080492 102.95335388 28.04222107 C108.80427828 28.09753362 114.65523857 28.14690226 120.50622559 28.19506836 C126.47163097 28.24521651 132.43698395 28.30093739 138.40234375 28.35620117 C150.11649174 28.463895 161.83068514 28.56531487 173.54492188 28.6628418 C173.54492188 28.9928418 173.54492188 29.3228418 173.54492188 29.6628418 C145.82492188 29.6628418 118.10492188 29.6628418 89.54492188 29.6628418 C89.54492188 40.2228418 89.54492188 50.7828418 89.54492188 61.6628418 C106.70492187 61.6628418 123.86492187 61.6628418 141.54492188 61.6628418 C141.54492188 61.9928418 141.54492188 62.3228418 141.54492188 62.6628418 C128.85376055 62.77866055 116.16272482 62.86751944 103.47114277 62.92190266 C97.57798415 62.94800316 91.68518694 62.98341041 85.79223633 63.04003906 C80.10583631 63.09434127 74.41978404 63.12425891 68.73314476 63.13722801 C66.56296501 63.146471 64.39280442 63.16452042 62.2227726 63.19149208 C59.18430997 63.22775774 56.14728659 63.23278807 53.10864258 63.23046875 C52.21024658 63.24844513 51.31185059 63.26642151 50.38623047 63.28494263 C45.93030356 63.24810742 44.1352528 63.13140807 40.53607178 60.27461243 C38.69451943 57.85906736 37.2840209 55.65478218 36.00976562 52.9050293 C35.59275391 52.03233398 35.17574219 51.15963867 34.74609375 50.26049805 C34.32908203 49.36202148 33.91207031 48.46354492 33.48242188 47.5378418 C32.64700184 45.73906604 31.80227223 43.944578 30.94726562 42.1550293 C30.58109131 41.36467285 30.21491699 40.57431641 29.83764648 39.76000977 C28.26193412 37.20375496 27.2163756 36.07532507 24.54492188 34.6628418 C21.72121476 34.33803111 19.10545499 34.17467375 16.27929688 34.15112305 C15.08920013 34.12419624 15.08920013 34.12419624 13.87506104 34.09672546 C11.34840156 34.04267253 8.82193043 34.00874368 6.29492188 33.9753418 C4.57874986 33.9421642 2.86260269 33.90767412 1.14648438 33.87182617 C-3.05390045 33.78694924 -7.2542299 33.72011458 -11.45507812 33.6628418 C-11.60039847 29.10067715 -11.6891629 24.53910818 -11.76757812 19.9753418 C-11.80947266 18.68176758 -11.85136719 17.38819336 -11.89453125 16.05541992 C-11.91064453 14.80825195 -11.92675781 13.56108398 -11.94335938 12.27612305 C-11.96954346 11.12926025 -11.99572754 9.98239746 -12.02270508 8.80078125 C-10.81297359 2.11317744 -6.34371403 0.03931563 0 0 Z " fill="#03A962" transform="translate(75.455078125,20.337158203125)"/>
<path d="M0 0 C1.02464355 0.0009668 2.04928711 0.00193359 3.10498047 0.00292969 C4.22662598 0.01614258 5.34827148 0.02935547 6.50390625 0.04296875 C7.66937988 0.05231445 8.83485352 0.06166016 10.03564453 0.07128906 C13.3168843 0.10458381 16.59770589 0.15036415 19.87872314 0.20050049 C22.18068147 0.23203416 24.48257765 0.25343551 26.78466797 0.27294922 C30.86528468 0.30895744 34.94506688 0.36763268 39.025177 0.44100952 C40.63061576 0.4672278 42.23617023 0.48714778 43.84176636 0.50064087 C46.11273888 0.52195086 48.38190802 0.56849464 50.65234375 0.62109375 C51.96251465 0.64204102 53.27268555 0.66298828 54.62255859 0.68457031 C58.66162071 1.32481864 60.240953 2.3132881 63.06640625 5.23046875 C64.59619141 7.67236328 64.59619141 7.67236328 65.85546875 10.36328125 C66.55542969 11.81927734 66.55542969 11.81927734 67.26953125 13.3046875 C67.73875 14.31144531 68.20796875 15.31820312 68.69140625 16.35546875 C69.63454876 18.36155836 70.58475722 20.36434554 71.54296875 22.36328125 C71.95627441 23.24902832 72.36958008 24.13477539 72.79541016 25.04736328 C74.01844189 27.51625039 74.01844189 27.51625039 77.06640625 29.23046875 C80.03640625 29.56046875 83.00640625 29.89046875 86.06640625 30.23046875 C86.06640625 40.79046875 86.06640625 51.35046875 86.06640625 62.23046875 C80.17475254 62.36837482 74.28871169 62.48775249 68.39672852 62.56005859 C66.39360568 62.59020024 64.3906145 62.6311219 62.38793945 62.68310547 C59.50569174 62.75603756 56.6251907 62.78995049 53.7421875 62.81640625 C52.8492952 62.84737396 51.95640289 62.87834167 51.03645325 62.9102478 C44.98634902 62.91350996 44.98634902 62.91350996 42.44517517 61.0267334 C39.93868902 58.13783342 38.13070359 54.7962633 36.53125 51.33984375 C36.11423828 50.46585938 35.69722656 49.591875 35.26757812 48.69140625 C34.41844863 46.8697807 33.57213589 45.04683974 32.72851562 43.22265625 C32.31279297 42.35382813 31.89707031 41.485 31.46875 40.58984375 C31.10257568 39.80061523 30.73640137 39.01138672 30.35913086 38.19824219 C28.74477143 35.74087921 27.87240246 35.12723343 25.06640625 34.23046875 C22.36536073 34.00632983 19.75758952 33.88222121 17.0546875 33.8515625 C16.28585739 33.83456802 15.51702728 33.81757355 14.72489929 33.80006409 C12.27631768 33.7470521 9.82775257 33.70667144 7.37890625 33.66796875 C4.91943163 33.62407098 2.4600893 33.57744093 0.0007782 33.52516174 C-1.52824446 33.4931469 -3.05738478 33.46627486 -4.58659363 33.44493103 C-9.82181902 33.34224348 -9.82181902 33.34224348 -10.93359375 32.23046875 C-11.21563751 28.34211097 -11.16547703 24.44032729 -11.18359375 20.54296875 C-11.20421875 19.45306641 -11.22484375 18.36316406 -11.24609375 17.24023438 C-11.29611146 6.96784767 -11.29611146 6.96784767 -7.93359375 2.23046875 C-4.66582985 0.05195948 -3.77718634 -0.01751082 0 0 Z " fill="#FEC33B" transform="translate(41.93359375,52.76953125)"/>
<path d="M0 0 C2.9375 1.375 2.9375 1.375 5 4 C5.7197456 7.46999302 5.69567982 10.52721122 5 14 C2.875 17.125 2.875 17.125 0 19 C-3.0625 19.5625 -3.0625 19.5625 -6 19 C-8.84079517 16.81793994 -9.88723035 15.66152274 -10.49609375 12.08984375 C-10.47675781 11.04957031 -10.45742187 10.00929687 -10.4375 8.9375 C-10.43621094 7.89464844 -10.43492188 6.85179687 -10.43359375 5.77734375 C-10 3 -10 3 -8.68359375 1.15625 C-5.79438298 -0.82798756 -3.38341726 -0.40834346 0 0 Z " fill="#FFF7F5" transform="translate(137,193)"/>
<path d="M0 0 C2.4375 1.375 2.4375 1.375 4 4 C4.79291109 8.84738431 4.64585224 12.70829553 2.4375 17.125 C0 19 0 19 -3.5 19.625 C-7 19 -7 19 -9.4375 17.125 C-11.64585224 12.70829553 -11.79291109 8.84738431 -11 4 C-8.25728114 -0.60776768 -5.09938243 -0.7284832 0 0 Z " fill="#FFF9F8" transform="translate(161,193)"/>
</svg>
